<?xml version="1.0" encoding="utf-8"?>
<!-- Generator: Adobe Illustrator 23.0.2, SVG Export Plug-In . SVG Version: 6.00 Build 0)  -->
<!DOCTYPE svg PUBLIC "-//W3C//DTD SVG 1.1//EN" "http://www.w3.org/Graphics/SVG/1.1/DTD/svg11.dtd" [
	<!ENTITY ns_extend "http://ns.adobe.com/Extensibility/1.0/">
	<!ENTITY ns_ai "http://ns.adobe.com/AdobeIllustrator/10.0/">
	<!ENTITY ns_graphs "http://ns.adobe.com/Graphs/1.0/">
	<!ENTITY ns_vars "http://ns.adobe.com/Variables/1.0/">
	<!ENTITY ns_imrep "http://ns.adobe.com/ImageReplacement/1.0/">
	<!ENTITY ns_sfw "http://ns.adobe.com/SaveForWeb/1.0/">
	<!ENTITY ns_custom "http://ns.adobe.com/GenericCustomNamespace/1.0/">
	<!ENTITY ns_adobe_xpath "http://ns.adobe.com/XPath/1.0/">
]>
<svg version="1.1" xmlns:x="&ns_extend;" xmlns:i="&ns_ai;" xmlns:graph="&ns_graphs;"
	 xmlns="http://www.w3.org/2000/svg" xmlns:xlink="http://www.w3.org/1999/xlink" x="0px" y="0px" viewBox="0 0 3000 3000"
	 style="enable-background:new 0 0 3000 3000;" xml:space="preserve">
<style type="text/css">
	.st0{display:none;}
	.st1{fill:#FFFFFF;}
	.st2{fill:#CE0000;}
</style>
<metadata>
	<sfw  xmlns="&ns_sfw;">
		<slices></slices>
		<sliceSourceBounds  bottomLeftOrigin="true" height="2816" width="1995" x="502.5" y="-2851.9"></sliceSourceBounds>
	</sfw>
</metadata>
<g id="Layer_1" class="st0">
	
		<image style="display:inline;overflow:visible;" width="554" height="782" xlink:href="لقطة الشاشة 2022-12-27 053208.png"  transform="matrix(3.601 0 0 3.601 502.5223 35.9417)">
	</image>
</g>
<g id="Layer_3">
</g>
<g id="Layer_2">
	<g>
		<path class="st1" d="M2238.1,675.5c0,60.1-18.6,115.9-50.4,161.9c-51.4,74.3-137.3,123-234.5,123c-97.2,0-183.1-48.7-234.5-123
			c-31.8-46-50.5-101.8-50.5-161.9c0-157.4,127.6-284.9,284.9-284.9C2110.5,390.6,2238.1,518.1,2238.1,675.5z"/>
		<path class="st1" d="M2130.8,1412.8c0,93.4-75.7,169.2-169.2,169.2H966.8c-30.1,0-58.4-7.9-82.9-21.7c-13.5-7.6-25.8-17-36.7-27.9
			c-30.6-30.6-49.5-72.9-49.5-119.6c0-63.3,34.8-118.5,86.3-147.5c24.5-13.8,52.8-21.7,82.9-21.7h994.9
			C2055.1,1243.6,2130.8,1319.3,2130.8,1412.8z"/>
		<path class="st1" d="M1100.3,559.7v1880.5c0,46.7-18.9,89-49.5,119.6c-30.6,30.6-72.9,49.6-119.6,49.6
			c-93.4,0-169.2-75.7-169.2-169.2V559.7c0-93.4,75.7-169.2,169.2-169.2C1024.5,390.6,1100.3,466.3,1100.3,559.7z"/>
		<path class="st1" d="M2130.8,1412.8v1027.5c0,46.7-18.9,89-49.6,119.6c-30.6,30.6-72.9,49.6-119.6,49.6
			c-93.4,0-169.2-75.7-169.2-169.2V1412.8c0-93.4,75.7-169.2,169.2-169.2C2055.1,1243.6,2130.8,1319.3,2130.8,1412.8z"/>
		<path class="st2" d="M1792.8,1706.5c0,2.8-0.1,5.5-0.3,8.3v-16.6C1792.7,1701,1792.8,1703.7,1792.8,1706.5z"/>
		<path class="st1" d="M1718.6,837.4c51.4,74.3,137.3,123,234.5,123c97.2,0,183.1-48.7,234.5-123H1718.6z M1961.7,1243.6h-736.8
			c-68.8,0-124.6-55.8-124.6-124.6V837.4H883.8v1013.1h216.4v-144c0-68.8,55.8-124.6,124.6-124.6h443.3c66,0,120.1,51.3,124.3,116.3
			v152.3h338.3v-437.8C2130.8,1319.3,2055.1,1243.6,1961.7,1243.6z"/>
	</g>
</g>
</svg>
